Coordinates
version=1
nRows=8
nColumns=63
inDegrees=yes

Units are S.I. units (second, meters, Newtons, ...)
If the header above contains a line with 'inDegrees', this indicates whether rotational values are in degrees (yes) or radians (no).

endheader
time	pelvis_tilt	pelvis_list	pelvis_rotation	pelvis_tx	pelvis_ty	pelvis_tz	hip_flexion_r	hip_adduction_r	hip_rotation_r	knee_angle_r	knee_angle_r_beta	ankle_angle_r	subtalar_angle_r	mtp_angle_r	hip_flexion_l	hip_adduction_l	hip_rotation_l	knee_angle_l	knee_angle_l_beta	ankle_angle_l	subtalar_angle_l	mtp_angle_l	L5_S1_Flex_Ext	L5_S1_Lat_Bending	L5_S1_axial_rotation	L4_L5_Flex_Ext	L4_L5_Lat_Bending	L4_L5_axial_rotation	L3_L4_Flex_Ext	L3_L4_Lat_Bending	L3_L4_axial_rotation	L2_L3_Flex_Ext	L2_L3_Lat_Bending	L2_L3_axial_rotation	L1_L2_Flex_Ext	L1_L2_Lat_Bending	L1_L2_axial_rotation	L1_T12_Flex_Ext	L1_T12_Lat_Bending	L1_T12_axial_rotation	Abs_r3	Abs_r2	Abs_r1	Abs_t1	Abs_t2	neck_flexion	neck_bending	neck_rotation	arm_flex_r	arm_add_r	arm_rot_r	elbow_flex_r	pro_sup_r	wrist_flex_r	wrist_dev_r	arm_flex_l	arm_add_l	arm_rot_l	elbow_flex_l	pro_sup_l	wrist_flex_l	wrist_dev_l
      1.73333333	      9.56224160	     -7.99983157	     96.84328309	      0.12665839	      1.05170509	      0.16268622	     14.47394232	      2.93965523	    -15.15198319	     13.85881428	      0.24188194	     21.46804015	     13.55788759	      0.00000000	     16.90374411	     -8.41258203	     -3.11298787	     16.81366502	      0.29345381	     25.50758365	     11.46587366	      0.00000000	      0.31150456	      0.26660806	     -0.07598459	      0.57849511	      0.35458872	     -0.08073362	      0.51177084	      0.64823083	     -0.08073362	      0.35601856	      0.64823083	     -0.06648651	      0.28926313	      0.54366715	     -0.06173748	      0.17799370	      0.41297588	     -0.05698844	      2.22504590	      3.01592367	     -0.42260348	      0.00000000	      0.00000000	      2.12460272	      8.80138975	     -9.86275384	     28.68242158	      1.06411175	     17.38054170	     87.84761600	     86.44079618	     -5.38042208	      1.92245053	     24.81144776	    -13.22985012	     18.09212879	     98.87987696	     71.83614078	     -7.19691985	     12.40767905
      1.75000000	      9.34224856	     -8.59607543	     96.02065757	      0.12653791	      1.04928442	      0.16553252	     15.56340061	      2.65576957	    -14.52929935	     14.36166558	      0.25065835	     21.95324570	     13.69013210	      0.00000000	     17.78756330	     -8.22939584	     -3.65799863	     17.41598979	      0.30396636	     25.83624794	     11.10690195	      0.00000000	      0.25866424	      0.27052071	      0.21032535	      0.48036537	      0.35979255	      0.22347068	      0.42495949	      0.65774406	      0.22347068	      0.29562736	      0.65774406	      0.18403468	      0.24019562	      0.55164584	      0.17088934	      0.14780075	      0.41903658	      0.15774401	      1.84761283	      3.06018441	      1.16976648	      0.00000000	      0.00000000	      1.59645410	      9.02331781	    -11.57165928	     29.34990195	      1.29874155	     14.68212145	     86.84701831	     87.37880731	    -11.54640367	     -4.83508572	     30.35772780	    -12.44624659	     21.97507409	     95.36295349	     71.01932639	     -5.38748847	     13.65410382
      1.76666667	      9.26325454	     -9.30415023	     95.42025093	      0.12582202	      1.04638937	      0.16775618	     16.69879670	      2.46739213	    -14.14838482	     14.83514866	      0.25892219	     22.57060313	     13.76636085	      0.00000000	     18.87882578	     -8.10772261	     -3.95838870	     18.11677025	      0.31619729	     26.24044993	     10.77949744	      0.00000000	      0.23968127	      0.33257021	      0.34108469	      0.44511209	      0.44231838	      0.36240248	      0.39377236	      0.80861122	      0.36240248	      0.27393173	      0.80861122	      0.29844910	      0.22256803	      0.67817718	      0.27713131	      0.13695388	      0.51515126	      0.25581352	      1.71201937	      3.76210077	      1.89701072	      0.00000000	      0.00000000	      0.77796834	      8.31323267	    -10.76943227	     30.39469547	      1.71164685	     12.12796427	     85.96141007	     87.58297679	    -13.82751443	     -7.58014195	     35.16444177	    -12.20704156	     25.50742192	     92.61167482	     70.63520566	     -4.35386429	     14.63389985
      1.78333333	      8.51283603	     -9.96026959	     94.26617658	      0.12659310	      1.04397776	      0.17020675	     17.81461122	      1.81465815	    -13.23769509	     15.38549631	      0.26852757	     23.07819211	     13.75064560	      0.00000000	     19.53130540	     -7.52087777	     -5.06065853	     18.33600733	      0.32002370	     26.24006367	     10.64992101	      0.00000000	      0.18626678	      0.26431724	      0.70377015	      0.34591605	      0.35154193	      0.74775579	      0.30601770	      0.64266094	      0.74775579	      0.21288431	      0.64266094	      0.61579888	      0.17296734	      0.53899572	      0.57181325	      0.10643284	      0.40942741	      0.52782762	      1.33048502	      2.99000951	      3.91415846	      0.00000000	      0.00000000	      0.65243631	      8.41444425	    -12.65865432	     31.07586326	      1.45797630	      9.35384752	     85.79333686	     87.19331940	    -16.57487097	    -10.84589925	     40.87101129	    -11.69266495	     30.86726243	     88.93945016	     65.13344139	     -3.46445036	     13.27075897
      1.80000000	      8.06380923	    -10.61720787	     93.52470411	      0.12629221	      1.04112192	      0.17224545	     18.87028176	      1.34944834	    -12.88814528	     15.88175886	      0.27718898	     23.60198398	     13.84908449	      0.00000000	     20.40724047	     -7.08390237	     -5.59318544	     18.74704837	      0.32719772	     26.50148366	     10.46499713	      0.00000000	      0.16691972	      0.25767570	      0.89150924	      0.30998661	      0.34270869	      0.94722857	      0.27423241	      0.62651271	      0.94722857	      0.19077255	      0.62651271	      0.78007059	      0.15500165	      0.52545229	      0.72435126	      0.09537793	      0.39913966	      0.66863193	      1.19229086	      2.91487909	      4.95830696	      0.00000000	      0.00000000	      0.23330085	      7.86721415	    -12.74172464	     31.53402717	      1.14818018	      6.87603742	     86.34582075	     86.88067486	    -15.54289061	    -10.05873494	     44.81799404	    -10.77182091	     34.42549782	     86.35408286	     62.80628161	     -3.96129393	     12.24995212
      1.81666667	      7.65195004	    -11.16514614	     92.92915958	      0.12583325	      1.03827137	      0.17409339	     19.78270031	      0.92938652	    -12.58861636	     16.35294754	      0.28541278	     24.03063267	     13.80109466	      0.00000000	     21.16922683	     -6.67031089	     -6.12305566	     19.04789284	      0.33244845	     26.87620097	     10.54692384	      0.00000000	      0.15556005	      0.25946901	      0.99122648	      0.28889058	      0.34509378	      1.05317813	      0.25556961	      0.63087295	      1.05317813	      0.17778959	      0.63087295	      0.86732317	      0.14445307	      0.52910921	      0.80537151	      0.08888702	      0.40191750	      0.74341986	      1.11114992	      2.93516534	      5.51290429	      0.00000000	      0.00000000	     -0.35000380	      7.22016897	    -11.93646123	     31.83967057	      0.73630294	      5.04099484	     87.31239803	     86.65236137	    -13.45101201	     -7.03983719	     47.52465395	     -9.79706385	     36.96096143	     84.41917838	     59.50573491	     -5.90875908	     10.50289230
      1.83333333	      7.37636450	    -11.60811836	     92.44304348	      0.12492186	      1.03540713	      0.17594147	     20.71015625	      0.58199024	    -12.45796799	     17.11693112	      0.29874681	     24.44064444	     13.69485530	      0.00000000	     21.92010215	     -6.33733694	     -6.42638731	     19.42806583	      0.33908372	     27.42386420	     10.47237734	      0.00000000	      0.14941357	      0.28171438	      1.02228348	      0.27747594	      0.37468013	      1.08617620	      0.24547155	      0.68496034	      1.08617620	      0.17076477	      0.68496034	      0.89449805	      0.13874544	      0.57447196	      0.83060533	      0.08537491	      0.43637557	      0.76671261	      1.06724618	      3.18680941	      5.68563406	      0.00000000	      0.00000000	     -1.08559431	      6.55137828	    -10.43833354	     32.16206075	     -0.02692783	      4.36172443	     88.39441825	     85.64604962	    -12.07849374	     -3.62212555	     48.76231143	     -8.24442263	     37.25559021	     82.84291688	     59.02970859	     -7.05927904	      9.64400332
      1.85000000	      7.04834440	    -11.95844781	     92.10102219	      0.12416663	      1.03282690	      0.17807146	     21.33333126	      0.21433311	    -12.47970052	     17.43472606	      0.30429337	     24.58304479	     13.72289265	      0.00000000	     22.59802802	     -5.96449391	     -6.84005525	     19.71228706	      0.34404431	     27.85615347	     10.69599821	      0.00000000	      0.12669455	      0.27404101	      1.03909369	      0.23528445	      0.36447454	      1.10403705	      0.20814648	      0.66630331	      1.10403705	      0.14479920	      0.66630331	      0.90920698	      0.11764856	      0.55882442	      0.84426362	      0.07239327	      0.42448952	      0.77932027	      0.90496651	      3.10000669	      5.77912739	      0.00000000	      0.00000000	     -1.59346272	      6.11213871	     -9.97611951	     32.17645561	     -0.37910535	      2.72437684	     90.26822307	     84.48210050	     -8.05547983	      3.38952265	     49.94577761	     -6.87906889	     38.05410517	     81.47817253	     57.67165137	     -9.45343949	      7.45513826
